<?xml version="1.0" standalone="no"?>
<!DOCTYPE svg PUBLIC "-//W3C//DTD SVG 20010904//EN"
 "http://www.w3.org/TR/2001/REC-SVG-20010904/DTD/svg10.dtd">
<svg version="1.0" xmlns="http://www.w3.org/2000/svg"
 width="249.000000pt" height="249.000000pt" viewBox="0 0 249.000000 249.000000"
 preserveAspectRatio="xMidYMid meet">
<metadata>
Created by potrace 1.11, written by Peter Selinger 2001-2013
</metadata>
<g transform="translate(0.000000,249.000000) scale(0.100000,-0.100000)"
fill="#000000" stroke="none">
<path d="M1202 2473 c-7 -3 -30 -31 -52 -64 -22 -32 -49 -63 -60 -69 -36 -19
-77 -11 -123 24 -108 82 -139 76 -171 -35 -31 -108 -71 -131 -171 -97 -116 39
-145 22 -141 -80 3 -77 -12 -125 -45 -143 -13 -6 -58 -12 -102 -13 -69 -1 -81
-4 -97 -23 -19 -24 -18 -37 13 -134 28 -85 2 -125 -101 -154 -112 -33 -119
-64 -36 -172 35 -46 43 -87 24 -123 -6 -11 -37 -38 -70 -60 -92 -63 -92 -95 0
-159 33 -23 64 -51 70 -61 17 -32 11 -75 -15 -111 -92 -126 -88 -150 27 -183
80 -23 113 -53 111 -102 -1 -22 -11 -63 -21 -93 -32 -89 -5 -125 89 -118 120
9 152 -21 154 -145 1 -70 4 -83 23 -99 25 -20 50 -18 114 9 91 39 144 10 174
-96 27 -96 61 -114 125 -67 73 53 95 65 122 65 42 0 62 -14 108 -80 23 -33 50
-62 61 -66 31 -9 65 14 99 68 57 89 107 101 182 44 108 -83 139 -76 171 36 31
110 74 131 184 93 105 -37 127 -20 128 96 1 121 34 151 156 141 50 -3 60 -1
82 21 26 27 26 34 -7 138 -28 85 -2 125 101 154 112 33 119 64 36 172 -58 77
-45 126 51 188 86 55 85 97 -4 154 -90 58 -104 110 -47 184 83 108 76 139 -36
171 -108 31 -131 75 -93 185 13 35 20 72 17 83 -8 34 -46 50 -104 46 -118 -10
-149 19 -152 142 -3 117 -26 134 -131 95 -104 -39 -149 -16 -180 92 -33 113
-63 120 -172 37 -46 -35 -87 -43 -123 -24 -11 6 -37 37 -59 69 -46 67 -68 81
-109 64z m-270 -407 c16 -7 18 -36 20 -347 l3 -339 50 63 c47 58 258 319 294
362 9 11 36 45 61 75 25 30 47 57 50 60 3 3 28 33 54 68 27 34 54 63 60 64 6
1 91 2 188 3 139 2 182 -1 198 -12 11 -8 20 -18 20 -23 0 -8 -113 -153 -187
-240 -12 -14 -94 -115 -183 -225 -89 -110 -185 -228 -213 -263 -29 -35 -54
-67 -55 -73 -3 -8 31 -53 105 -139 11 -14 67 -79 123 -145 56 -66 112 -131
124 -145 12 -14 68 -81 126 -149 58 -68 117 -138 132 -155 15 -17 27 -38 28
-47 1 -35 -20 -39 -221 -39 l-197 0 -49 57 c-27 32 -85 103 -129 158 -43 55
-83 105 -89 111 -5 6 -52 63 -104 127 l-93 115 -49 -51 -48 -52 -1 -222 c0
-209 -1 -223 -19 -233 -11 -5 -85 -10 -169 -10 -127 0 -152 3 -163 16 -12 14
-14 153 -14 803 0 432 1 794 4 804 2 10 13 22 25 27 26 9 295 6 318 -4z"/>
</g>
</svg>
